<svg width="38" height="36" viewBox="0 0 38 36" fill="" xmlns="http://www.w3.org/2000/svg">
<path d="M23.5867 1.94632C24.3447 3.08183 28.1526 2.81399 30.2551 2.49952C30.4814 2.46567 30.7087 2.44612 30.9375 2.44612C33.2354 2.44612 35.0826 4.31051 35.1933 6.60569C35.2677 8.1504 35.3939 9.53445 35.5986 9.94325C36.0991 10.9429 36.0991 17.4403 36.0991 24.4375C36.0991 31.4348 31.0941 34.4336 29.0921 34.4336C27.0902 34.4336 25.0882 31.9346 23.5867 31.9346C22.0852 31.9346 20.0832 34.9334 18.0812 34.9334C17.1216 34.9334 15.8747 33.857 14.8138 32.6715C13.6172 31.3343 12.0415 30.3318 10.2559 30.1535L9.16862 30.0449C8.4431 29.9725 7.72112 29.7906 7.13377 29.3586C3.67734 26.8161 1.52446 20.4561 1.06425 14.9413C0.927048 13.2971 1.02101 11.8407 1.23738 10.5963C1.58039 8.62349 6.06881 5.94483 8.07123 5.94483C13.5767 5.94483 15.5787 2.94593 16.0792 1.94632C16.5797 0.946716 22.5857 0.446914 23.5867 1.94632Z" stroke="white" stroke-width="2"/>
</svg>
