<svg width="32" height="46" viewBox="0 0 32 46" fill="" xmlns="http://www.w3.org/2000/svg">
<path d="M9.50847 7.37545C8.70767 8.17513 6.50548 8.37505 5.50448 8.37505C4.00299 8.37505 3.00199 17.8713 3.00199 19.3707C3.00199 20.49 1.83979 26.0486 1.14216 29.2235C1.04808 29.6516 1 30.0877 1 30.5261V38.3632C1.5005 44.3608 9.00797 44.3608 10.009 43.861C11.01 43.3612 12.5115 41.8618 20.5194 40.8622C26.2677 40.1447 29.2222 36.1544 30.2506 33.6572C30.4632 33.141 30.5294 32.5827 30.5294 32.0244V21.3699C30.5294 15.3723 27.5264 6.87561 26.0249 6.87561C25.0264 6.87561 23.0366 5.26408 21.7227 4.05033C21.2488 3.61255 20.8997 3.06088 20.5055 2.55015C18.9094 0.482289 16.3591 0.930052 15.0139 1.37782C13.5125 1.87762 10.5095 6.37584 9.50847 7.37545Z" stroke="white" stroke-width="2"/>
</svg>
