<svg width="36" height="49" viewBox="0 0 36 49" fill="" xmlns="http://www.w3.org/2000/svg">
<path d="M12.1899 5.99803C12.0082 6.13416 11.8118 6.26299 11.6047 6.38468C9.03019 7.89792 6.57457 10.2164 6.01021 13.1489C5.00867 18.3531 3.09414 25.5438 1.67945 30.4884C0.077859 36.0862 1.67945 39.1516 2.68045 39.9846L8.7655 44.7591C9.37436 45.2368 9.84402 45.8764 10.4294 46.3826C12.096 47.8236 15.0318 47.6879 17.0678 47.2676C17.8213 47.112 18.503 46.7327 19.1005 46.2479L25.1693 41.3238C25.8507 40.7709 26.6522 40.3937 27.4793 40.1007C30.5732 39.0048 32.5578 37.0447 33.5733 35.5866C34.0537 34.8968 34.2118 34.0529 34.2118 33.2124V26.4899C34.2118 22.818 32.5235 15.4931 31.4725 11.4826C31.3007 10.8271 31.2512 10.1493 31.2381 9.47182C31.2049 7.76994 30.7294 6.74653 30.0576 6.17316C28.197 4.5852 25.1629 4.90679 23.5365 3.0797C22.4111 1.81546 20.7288 1 19.0362 1H16.6944C14.6924 1 14.1919 4.49862 12.1899 5.99803Z" stroke="white" stroke-width="2"/>
</svg>
