<svg width="38" height="44" viewBox="0 0 38 44" fill="" xmlns="http://www.w3.org/2000/svg">
<path d="M15.5052 2.77138C13.8063 3.96394 11.2942 4.73022 8.94934 5.1899C6.33959 5.70151 4.07463 7.5252 3.44981 10.1102L1.16795 19.5505C1.05638 20.0121 1 20.4846 1 20.9595V32.2406C1 35.9286 5.54188 37.9158 8.34174 38.5943C8.78306 38.7012 9.21805 38.8298 9.63416 39.0116L15.8673 41.7348C16.6249 42.0658 17.4427 42.2367 18.2694 42.2367H21.0439C23.1957 42.2367 25.1175 41.009 26.6402 39.4885C28.4894 37.642 30.8974 36.1753 34.0329 33.74C37.3048 31.1987 36.1481 26.2677 34.9084 23.511C34.6761 22.9944 34.4741 22.463 34.3572 21.9087L31.6879 9.24705C31.036 6.15513 27.966 4.11101 25.0213 2.96491C24.5221 2.77063 24.0186 2.53552 23.5224 2.25237C21.9354 1.34678 20.3806 1.03941 19.1485 1.00363C17.7547 0.96316 16.6464 1.97028 15.5052 2.77138Z" stroke="white" stroke-width="2"/>
</svg>
