<svg width="36" height="44" viewBox="0 0 36 44" fill="" xmlns="http://www.w3.org/2000/svg">
<path d="M12.5115 3.6431C12.1987 5.82905 9.21984 7.95403 6.81743 9.25612C5.66616 9.8801 4.19239 10.2789 3.74239 11.5086C3.06426 13.3619 2.68745 16.681 2.53891 18.9857C2.51102 19.4184 2.44309 19.8464 2.33417 20.266C1.80707 22.2971 1 25.8384 1 27.6335C1 30.1325 2.50149 34.6308 5.00398 34.6308C7.50648 34.6308 9.50847 37.6296 13.012 40.6284C15.8147 43.0275 19.1848 41.9612 20.5194 41.1282C23.4594 38.7261 25.2249 37.3781 26.1731 36.6977C26.7251 36.3016 27.3766 36.1087 28.0314 35.9273C30.1956 35.3276 32.0925 33.773 33.2464 32.553C33.7963 31.9716 34.1407 31.2298 34.3086 30.4472C35.836 23.3294 34.0329 20.4834 34.0329 17.6375C34.0329 15.9609 32.4032 12.071 30.8523 8.79985C29.7956 6.57118 27.3538 5.51673 24.9715 4.87794C22.8339 4.30476 21.3206 3.1186 20.0189 2.14369C18.0169 0.644283 13.012 0.14448 12.5115 3.6431Z" stroke="white" stroke-width="2"/>
</svg>
