<svg width="46" height="44" viewBox="0 0 46 44" fill="" xmlns="http://www.w3.org/2000/svg">
<path d="M7.34635 6.3714L3.0509 6.70136C1.37775 6.82989 0.986394 8.18472 1.00036 9.17244C1.00535 9.52558 1.04891 9.87642 1.04891 10.2296V20.6958C1.04891 23.6305 2.45314 27.9114 3.32915 30.142C3.47375 30.5102 3.59037 30.8931 3.67308 31.2799C5.69308 40.7277 9.11683 41.6975 12.0599 42.1874C13.3804 42.4071 14.7614 41.3282 15.9037 39.9799C17.0409 38.6376 19.81 38.1889 21.5693 38.1889C23.0635 38.1889 24.6506 37.0753 25.7064 36.0948C26.3128 35.5317 27.1068 35.0172 27.6694 35.624C27.9595 35.9368 28.2727 36.4313 28.5763 37.1893C29.0602 38.3974 30.7868 38.4496 32.5192 38.118C34.4872 37.7413 36.6166 38.1119 38.6199 38.0715C39.4392 38.055 40.3026 37.8174 41.0888 37.1893C42.747 35.8645 43.6041 31.7049 43.9443 28.8008C44.0674 27.7496 44.4045 26.7045 44.545 25.6554C44.8768 23.1764 44.4843 18.726 44.0917 15.198C43.7633 12.2459 41.8405 6.84953 40.4234 3.25838C39.8976 1.92581 38.7546 0.697952 37.4289 1.24096C36.8399 1.48223 36.2016 1.93128 35.5833 2.70316C34.1722 4.46459 30.5854 4.28611 28.3828 3.8769C27.8433 3.77666 27.3368 3.56025 26.8426 3.32159C25.3376 2.5947 22.5808 1.5379 19.5673 1.20353C16.793 0.895703 13.4452 2.93802 11.2139 4.73054C10.0982 5.62679 8.7732 6.2618 7.34635 6.3714Z" stroke="white" stroke-width="2"/>
</svg>
