<svg width="48" height="43" viewBox="0 0 48 43" fill="" xmlns="http://www.w3.org/2000/svg">
<path d="M11.0628 2.95651C6.63775 2.98316 4.04318 6.39585 3.09212 8.58973C2.96142 8.89124 2.82673 9.19138 2.67968 9.48527C0.439598 13.9625 0.924126 20.2835 1.40866 27.5413C1.90915 35.0383 8.91613 42.0356 12.4196 41.5358C13.3553 41.4023 14.3913 41.0794 15.4123 40.6713C18.2109 39.5527 22.573 39.5843 25.4326 40.5362C26.1618 40.7789 27.2967 39.806 28.3 38.6685C29.385 37.4384 31.0034 36.8083 32.6126 36.4909C34.0888 36.1998 35.3516 35.487 36.387 34.6151C37.9098 33.3326 41.7022 28.9934 43.4505 28.0411C47.8549 25.642 46.2867 19.3778 44.952 16.5456L40.5152 4.86492C39.8427 3.09439 38.3791 1.71348 36.5169 1.36789C34.2503 0.94722 31.7445 0.746332 30.938 1.55163C29.4366 3.05104 22.9301 6.04986 19.9271 6.04986C18.0158 6.04986 15.3444 4.78451 13.5759 3.7638C12.8007 3.31639 11.9578 2.95112 11.0628 2.95651Z" stroke="white" stroke-width="2"/>
</svg>
