<svg width="38" height="36" viewBox="0 0 38 36" fill="" xmlns="http://www.w3.org/2000/svg">
<path d="M13.5125 1.94632C12.7544 3.08183 8.94657 2.81399 6.84401 2.49952C6.61767 2.46567 6.39047 2.44612 6.16161 2.44612C3.86377 2.44612 2.01653 4.31051 1.90587 6.60569C1.83139 8.1504 1.70518 9.53445 1.5005 9.94325C1 10.9429 1 17.4403 1 24.4375C1 31.4348 6.00498 34.4336 8.00697 34.4336C10.009 34.4336 12.011 31.9346 13.5125 31.9346C15.0139 31.9346 17.0159 34.9334 19.0179 34.9334C19.9775 34.9334 21.2245 33.857 22.2853 32.6715C23.4819 31.3343 25.0576 30.3318 26.8432 30.1535L27.9305 30.0449C28.656 29.9725 29.378 29.7906 29.9653 29.3586C33.4218 26.8161 35.5747 20.4561 36.0349 14.9413C36.1721 13.2971 36.0781 11.8407 35.8617 10.5963C35.5187 8.62349 31.0303 5.94483 29.0279 5.94483C23.5224 5.94483 21.5204 2.94593 21.0199 1.94632C20.5194 0.946716 14.5134 0.446914 13.5125 1.94632Z" stroke="white" stroke-width="2"/>
</svg>
