<svg width="38" height="29" viewBox="0 0 38 29" fill="" xmlns="http://www.w3.org/2000/svg">
<path d="M9.79778 1.88897C5.96026 -0.270939 3.10839 1.92144 1.66195 4.0412C1.16717 4.76629 1 5.65024 1 6.52806V15.691C1.43606 19.8278 2.18871 22.3739 2.91855 23.862C3.61845 25.289 5.27165 25.186 6.82222 24.8368C8.74389 24.404 11.3784 24.1876 14.013 24.1876C18.0169 24.1876 23.0219 27.1864 26.0249 27.1864C29.0279 27.1864 34.0329 25.1872 35.5344 21.6886C37.0359 18.19 37.0359 8.69374 35.5344 4.69532C34.0329 0.696897 31.0299 2.19631 29.5284 3.19591C28.6747 3.76426 27.2648 3.69305 26.1612 3.48467C25.399 3.34076 24.7316 2.91989 24.0972 2.47362C20.9994 0.294465 18.4279 0.830966 17.5164 2.19631C16.8904 3.13413 14.3879 3.11476 12.4488 2.90247C11.499 2.79849 10.6303 2.35758 9.79778 1.88897Z" stroke="white" stroke-width="2"/>
</svg>
