<svg width="45" height="36" viewBox="0 0 45 36" fill="" xmlns="http://www.w3.org/2000/svg">
<path d="M14.0772 1.10129C8.47164 0.301605 5.06825 4.43331 4.06726 6.59912C1.56476 11.0971 1.56477 16.0956 1.06427 20.5938C0.820836 22.7817 1.30507 25.8193 1.90961 28.4264C2.49278 30.9413 4.81074 32.5968 7.38049 32.3492C8.08381 32.2814 8.82471 32.196 9.57273 32.0893C13.0762 31.5895 14.0772 33.5887 20.0832 34.5883C23.6307 35.1787 27.0327 33.8075 29.2417 32.4459C30.5023 31.6689 31.9153 31.1093 33.3917 30.9943C35.4511 30.8338 37.5133 30.4947 39.1441 30.1628C40.7275 29.8405 42.0894 28.7971 42.4594 27.2242C43.7845 21.5914 42.682 11.462 40.1031 7.59896C37.1001 3.10073 30.5937 2.60093 27.5907 4.10034C26.7459 4.52215 25.8351 4.70911 24.9583 4.75249C22.56 4.87116 20.2466 2.67483 17.9598 1.94238C16.9732 1.62639 15.7018 1.33305 14.0772 1.10129Z" stroke="white" stroke-width="2"/>
</svg>
