<svg width="53" height="38" viewBox="0 0 53 38" fill="" xmlns="http://www.w3.org/2000/svg">
<path d="M10.1121 2.19909C5.44233 1.24602 2.67946 3.55818 1.47127 5.61804C1.1068 6.23943 1 6.96439 1 7.68478V20.0921C1 26.4034 3.82241 31.8948 5.75471 34.6114C6.22552 35.2734 6.87428 35.7905 7.64111 36.0584C9.198 36.6024 11.4572 37.0173 13.012 36.0858C14.672 35.0911 18.5114 34.486 21.1062 34.2133C22.0363 34.1155 22.9693 34.2783 23.8421 34.6144C25.9797 35.4375 28.8777 36.4107 29.5284 36.0858C30.1826 35.7591 32.8855 34.5207 34.8537 33.6241C35.6322 33.2695 36.477 33.0869 37.3324 33.0869H45.5443C49.5483 33.0869 51.2166 27.7557 51.5503 25.0901C51.5503 21.7581 51.1499 13.8945 49.5483 9.09641C48.2565 5.22623 43.6215 3.91419 40.2135 3.63891C38.8461 3.52845 37.5843 2.885 36.4665 2.08952C34.4789 0.674895 33.0169 1.61934 32.0806 3.08427C31.4425 4.08258 30.2008 5.43046 29.0279 5.5978C27.498 5.81605 26.1967 5.64708 25.2218 5.36729C24.0483 5.03052 23.3927 3.92582 22.7357 2.89684C21.3782 0.770627 19.3602 0.699209 17.4998 1.38927C15.1574 2.25814 12.56 2.69869 10.1121 2.19909Z" stroke="white" stroke-width="2"/>
</svg>
