<svg width="49" height="43" viewBox="0 0 49 43" fill="" xmlns="http://www.w3.org/2000/svg">
<path d="M37.0363 2.95651C41.4614 2.98316 44.0559 6.39585 45.007 8.58973C45.1377 8.89124 45.2724 9.19138 45.4194 9.48527C47.6595 13.9625 47.175 20.2835 46.6905 27.5413C46.19 35.0383 39.183 42.0356 35.6795 41.5358C34.7439 41.4023 33.7078 41.0794 32.6868 40.6713C29.8882 39.5527 25.5261 39.5843 22.6666 40.5362C21.9374 40.7789 20.8024 39.806 19.7991 38.6685C18.7142 37.4384 17.0957 36.8083 15.4865 36.4909C14.0103 36.1998 12.7475 35.487 11.7121 34.6151C10.1893 33.3326 6.39694 28.9934 4.64862 28.0411C0.24424 25.642 1.81247 19.3778 3.14713 16.5456L7.58393 4.86492C8.25645 3.09439 9.72002 1.71348 11.5822 1.36789C13.8489 0.94722 16.3547 0.746332 17.1611 1.55163C18.6626 3.05104 25.169 6.04986 28.172 6.04986C30.0833 6.04986 32.7548 4.78451 34.5232 3.7638C35.2984 3.31639 36.1413 2.95112 37.0363 2.95651Z" stroke="white" stroke-width="2"/>
</svg>
