<svg width="37" height="40" viewBox="0 0 37 40" fill="" xmlns="http://www.w3.org/2000/svg">
<path d="M5.78525 5.46069C2.87553 6.28572 1.77628 7.69755 1.51042 8.63917C1.42731 8.93353 1.41748 9.24299 1.37768 9.54626C1.05454 12.0086 0.691952 17.5925 1.44216 23.5858C1.86794 26.9873 2.97289 29.8802 4.14011 32.0691C5.48445 34.5901 8.97412 34.9387 11.711 35.7587C12.5587 36.0126 13.4813 36.4322 14.4551 37.0805C16.4939 38.4378 17.9879 38.8992 18.9917 38.9535C20.0105 39.0086 20.5731 38.0102 21.2799 37.2743C22.3124 36.1993 24.3647 35.0813 27.9686 35.0813C34.475 35.0813 34.475 30.0833 34.9755 29.0836C35.3759 28.284 35.476 20.7536 35.476 17.0884C35.6429 15.2558 35.5761 11.4906 33.9745 11.0907C31.9725 10.5909 27.4681 8.09195 25.4661 5.09314C23.4641 2.09432 18.4591 0.59491 14.9556 1.09471C12.8508 1.39498 10.4262 2.84145 8.78383 4.03718C7.8836 4.6926 6.85656 5.15693 5.78525 5.46069Z" stroke="white" stroke-width="2"/>
</svg>
