<svg width="35" height="42" viewBox="0 0 35 42" fill="" xmlns="http://www.w3.org/2000/svg">
<path d="M7.00598 7.82247C4.29985 8.16027 2.35579 10.9 1.41523 12.8472C1.11066 13.4777 1 14.1764 1 14.8766V26.815C1 27.2975 1.32392 28.2814 1.77633 29.4154C2.87775 32.1761 6.62302 33.8447 9.35675 35.0116C9.88896 35.2388 10.2152 35.5228 10.6369 35.9191C12.8552 38.0042 16.8408 41.1718 19.0179 40.8095C20.5045 40.5621 22.0676 38.8986 23.2806 37.1926C24.4934 35.4868 26.4327 34.3674 28.1604 33.1859C30.8257 31.3634 32.1563 27.8129 32.5314 25.8154C32.6982 24.1494 33.0319 19.6178 33.0319 14.8197C33.0319 8.82211 28.5274 6.8229 26.0249 6.8229C23.5224 6.8229 22.021 5.3235 19.018 2.32476L19.0179 2.32464C17.3497 0.658763 15.4241 0.824436 14.0119 1.41597C12.9514 1.86023 12.3693 2.92935 11.8305 3.94516C10.9491 5.60693 9.35406 7.52937 7.00598 7.82247Z" stroke="white" stroke-width="2"/>
</svg>
