<svg width="33" height="48" viewBox="0 0 33 48" fill="" xmlns="http://www.w3.org/2000/svg">
<path d="M1 22.1352C1 17.737 2.001 13.3054 2.50149 11.6394C2.90753 10.04 8.34299 5.30854 11.01 3.14272C12.5115 1.64332 15.8147 -0.555817 17.0159 2.64292C18.5174 6.64134 28.5274 10.14 30.0289 11.6394C31.5304 13.1388 31.0299 22.635 30.5294 30.6319C30.0289 38.6287 21.5204 45.626 17.5164 46.1258C15.9333 46.3234 14.3665 45.878 13.0456 45.2362C10.9994 44.2419 9.82775 41.6046 8.18266 40.0332C7.73154 39.6022 7.17899 39.1332 6.50548 38.6287C2.50149 35.6299 1 27.6331 1 22.1352Z" stroke="white" stroke-width="2"/>
</svg>
