<svg width="29" height="43" viewBox="0 0 29 43" fill="" xmlns="http://www.w3.org/2000/svg">
<path d="M10.5095 40.0724C8.83174 38.1576 6.95077 37.1025 5.42476 36.564C3.92553 36.0349 2.51043 35.3138 2.12415 33.7716C1.63698 31.8266 1.21137 29.1605 1 27.5774V9.08439C1 2.08715 6.00498 0.587741 7.00598 1.08792C7.66667 1.41805 10.6441 1.77038 12.79 1.97698C13.597 2.05468 14.4121 1.96149 15.2084 1.80852C16.2667 1.6052 17.9952 1.33999 20.5194 1.08792C23.4504 0.795229 25.6662 2.27012 26.9705 3.66978C27.7591 4.51598 27.9843 5.70013 27.9191 6.85495C27.7469 9.90239 27.5264 14.855 27.5264 19.0808C27.5264 22.1913 26.929 25.8149 26.2704 28.7948C25.6509 31.5976 22.4443 33.0009 20.5539 35.1611C20.3436 35.4015 20.1662 35.6512 20.0193 35.8972C19.5858 36.6235 19.2598 37.4275 18.681 38.0443C16.5709 40.2933 12.9471 42.8543 10.5095 40.0724Z" stroke="white" stroke-width="2"/>
</svg>
