<svg width="27" height="42" viewBox="0 0 27 42" fill="" xmlns="http://www.w3.org/2000/svg">
<path d="M11.2652 39.3935C9.03509 36.9225 5.49345 35.4155 3.19091 34.741C2.46618 34.5287 1.79915 34.17 1.62599 33.435C0.897393 30.3419 0.942742 21.2822 1.08463 16.4645C1.08463 15.9647 1.28483 13.8655 2.08563 9.46724C2.75493 5.7912 5.10242 3.954 6.73195 3.25523C7.28479 3.01817 7.85407 2.80791 8.4273 2.6256C10.3133 2.02578 14.5691 1.46634 21.6051 2.47009C21.9118 2.51384 22.2043 2.55995 22.4832 2.60823C26.6121 3.32311 25.609 13.2739 25.609 17.4642C25.609 23.2214 24.8247 27.8978 24.0628 30.9133C23.5736 32.8492 21.8488 34.2083 20.4195 35.6027C19.0682 36.9209 17.8342 38.723 16.6001 39.9554C15.5602 40.9938 14.3235 41.1052 13.3555 40.9188C12.4913 40.7523 11.8719 40.0659 11.2818 39.412L11.2652 39.3935Z" stroke="white" stroke-width="2"/>
</svg>
