<svg width="28" height="42" viewBox="0 0 28 42" fill="" xmlns="http://www.w3.org/2000/svg">
<path d="M15.834 39.3935C18.064 36.9225 21.6057 35.4155 23.9082 34.741C24.6329 34.5287 25.3 34.17 25.4731 33.435C26.2017 30.3419 26.1564 21.2822 26.0145 16.4645C26.0145 15.9647 25.8143 13.8655 25.0135 9.46724C24.3442 5.7912 21.9967 3.954 20.3672 3.25523C19.8143 3.01817 19.245 2.80791 18.6718 2.6256C16.7858 2.02578 12.5301 1.46634 5.49406 2.47009C5.18737 2.51384 4.89483 2.55995 4.61594 2.60823C0.486992 3.32311 1.49008 13.2739 1.49008 17.4642C1.49008 23.2214 2.27439 27.8978 3.03637 30.9133C3.52554 32.8492 5.25029 34.2083 6.67958 35.6027C8.03089 36.9209 9.26497 38.723 10.499 39.9554C11.5389 40.9938 12.7757 41.1052 13.7436 40.9188C14.6078 40.7523 15.2272 40.0659 15.8173 39.412L15.834 39.3935Z" stroke="white" stroke-width="2"/>
</svg>
