<svg width="30" height="43" viewBox="0 0 30 43" fill="" xmlns="http://www.w3.org/2000/svg">
<path d="M18.5897 40.0724C20.2674 38.1576 22.1484 37.1025 23.6744 36.564C25.1736 36.0349 26.5887 35.3138 26.975 33.7716C27.4621 31.8266 27.8877 29.1605 28.0991 27.5774V9.08439C28.0991 2.08715 23.0941 0.587741 22.0931 1.08792C21.4324 1.41805 18.4551 1.77038 16.3091 1.97698C15.5021 2.05468 14.687 1.96149 13.8908 1.80852C12.8325 1.6052 11.1039 1.33999 8.57969 1.08792C5.64873 0.795229 3.43292 2.27012 2.12861 3.66978C1.34006 4.51598 1.11483 5.70013 1.18006 6.85495C1.35219 9.90239 1.57272 14.855 1.57272 19.0808C1.57272 22.1913 2.17014 25.8149 2.82873 28.7948C3.44819 31.5976 6.6548 33.0009 8.54519 35.1611C8.75556 35.4015 8.93294 35.6512 9.07978 35.8972C9.51329 36.6235 9.83935 37.4275 10.4181 38.0443C12.5283 40.2933 16.1521 42.8543 18.5897 40.0724Z" stroke="white" stroke-width="2"/>
</svg>
