<svg width="33" height="48" viewBox="0 0 33 48" fill="" xmlns="http://www.w3.org/2000/svg">
<path d="M31.0991 22.1352C31.0991 17.737 30.0981 13.3054 29.5976 11.6394C29.1916 10.04 23.7561 5.30854 21.0892 3.14272C19.5877 1.64332 16.2844 -0.555817 15.0832 2.64292C13.5817 6.64134 3.57172 10.14 2.07023 11.6394C0.568735 13.1388 1.06923 22.635 1.56973 30.6319C2.07023 38.6287 10.5787 45.626 14.5827 46.1258C16.1658 46.3234 17.7326 45.878 19.0535 45.2362C21.0997 44.2419 22.2714 41.6046 23.9165 40.0332C24.3676 39.6022 24.9201 39.1332 25.5936 38.6287C29.5976 35.6299 31.0991 27.6331 31.0991 22.1352Z" stroke="white" stroke-width="2"/>
</svg>
