<svg width="35" height="42" viewBox="0 0 35 42" fill="" xmlns="http://www.w3.org/2000/svg">
<path d="M27.0931 7.82247C29.7993 8.16027 31.7433 10.9 32.6839 12.8472C32.9885 13.4777 33.0991 14.1764 33.0991 14.8766V26.815C33.0991 27.2975 32.7752 28.2814 32.3228 29.4154C31.2214 32.1761 27.4761 33.8447 24.7424 35.0116C24.2102 35.2388 23.8839 35.5228 23.4622 35.9191C21.2439 38.0042 17.2583 41.1718 15.0812 40.8095C13.5947 40.5621 12.0315 38.8986 10.8185 37.1926C9.60571 35.4868 7.66639 34.3674 5.93869 33.1859C3.27341 31.3634 1.94279 27.8129 1.56774 25.8154C1.40091 24.1494 1.06724 19.6178 1.06724 14.8197C1.06724 8.82211 5.57172 6.8229 8.07421 6.8229C10.5767 6.8229 12.0782 5.3235 15.0811 2.32476L15.0812 2.32464C16.7494 0.658763 18.675 0.824436 20.0872 1.41597C21.1477 1.86023 21.7298 2.92935 22.2686 3.94516C23.15 5.60693 24.7451 7.52937 27.0931 7.82247Z" stroke="white" stroke-width="2"/>
</svg>
