<svg width="38" height="40" viewBox="0 0 38 40" fill="" xmlns="http://www.w3.org/2000/svg">
<path d="M31.3139 5.46069C34.2236 6.28572 35.3228 7.69755 35.5887 8.63917C35.6718 8.93353 35.6816 9.24299 35.7214 9.54626C36.0446 12.0086 36.4072 17.5925 35.657 23.5858C35.2312 26.9873 34.1262 29.8802 32.959 32.0691C31.6147 34.5901 28.125 34.9387 25.3881 35.7587C24.5404 36.0126 23.6178 36.4322 22.644 37.0805C20.6053 38.4378 19.1112 38.8992 18.1074 38.9535C17.0886 39.0086 16.526 38.0102 15.8192 37.2743C14.7868 36.1993 12.7344 35.0813 9.13056 35.0813C2.62408 35.0813 2.62408 30.0833 2.12358 29.0836C1.72319 28.284 1.62309 20.7536 1.62309 17.0884C1.45625 15.2558 1.52299 11.4906 3.12458 11.0907C5.12657 10.5909 9.63106 8.09195 11.6331 5.09314C13.635 2.09432 18.64 0.59491 22.1435 1.09471C24.2483 1.39498 26.6729 2.84145 28.3153 4.03718C29.2155 4.6926 30.2426 5.15693 31.3139 5.46069Z" stroke="white" stroke-width="2"/>
</svg>
