<svg width="47" height="44" viewBox="0 0 47 44" fill="" xmlns="http://www.w3.org/2000/svg">
<path d="M38.7528 6.3714L43.0482 6.70136C44.7214 6.82989 45.1127 8.18472 45.0988 9.17244C45.0938 9.52558 45.0502 9.87642 45.0502 10.2296V20.6958C45.0502 23.6305 43.646 27.9114 42.77 30.142C42.6254 30.5102 42.5087 30.8931 42.426 31.2799C40.406 40.7277 36.9823 41.6975 34.0393 42.1874C32.7187 42.4071 31.3377 41.3282 30.1955 39.9799C29.0583 38.6376 26.2891 38.1889 24.5298 38.1889C23.0356 38.1889 21.4485 37.0753 20.3927 36.0948C19.7863 35.5317 18.9923 35.0172 18.4297 35.624C18.1396 35.9368 17.8264 36.4313 17.5228 37.1893C17.0389 38.3974 15.3124 38.4496 13.5799 38.118C11.6119 37.7413 9.48257 38.1119 7.47927 38.0715C6.65995 38.055 5.79656 37.8174 5.01037 37.1893C3.35208 35.8645 2.49505 31.7049 2.15485 28.8008C2.0317 27.7496 1.69459 26.7045 1.55416 25.6554C1.22229 23.1764 1.61483 18.726 2.00738 15.198C2.33585 12.2459 4.25865 6.84953 5.67573 3.25838C6.20157 1.92581 7.34451 0.697952 8.67019 1.24096C9.25921 1.48223 9.89748 1.93128 10.5158 2.70316C11.927 4.46459 15.5138 4.28611 17.7163 3.8769C18.2558 3.77666 18.7624 3.56025 19.2565 3.32159C20.7615 2.5947 23.5183 1.5379 26.5318 1.20353C29.3061 0.895703 32.6539 2.93802 34.8853 4.73054C36.0009 5.62679 37.3259 6.2618 38.7528 6.3714Z" stroke="white" stroke-width="2"/>
</svg>
