<svg width="54" height="38" viewBox="0 0 54 38" fill="" xmlns="http://www.w3.org/2000/svg">
<path d="M42.987 2.19909C47.6568 1.24602 50.4197 3.55818 51.6279 5.61804C51.9923 6.23943 52.0991 6.96439 52.0991 7.68478V20.0921C52.0991 26.4034 49.2767 31.8948 47.3444 34.6114C46.8736 35.2734 46.2248 35.7905 45.458 36.0584C43.9011 36.6024 41.642 37.0173 40.0872 36.0858C38.4271 35.0911 34.5877 34.486 31.9929 34.2133C31.0628 34.1155 30.1298 34.2783 29.257 34.6144C27.1195 35.4375 24.2215 36.4107 23.5707 36.0858C22.9165 35.7591 20.2136 34.5207 18.2454 33.6241C17.4669 33.2695 16.6222 33.0869 15.7667 33.0869H7.55479C3.5508 33.0869 1.88248 27.7557 1.54881 25.0901C1.54881 21.7581 1.94921 13.8945 3.5508 9.09641C4.84266 5.22623 9.47765 3.91419 12.8856 3.63891C14.253 3.52845 15.5149 2.885 16.6326 2.08952C18.6202 0.674895 20.0822 1.61934 21.0186 3.08427C21.6567 4.08258 22.8983 5.43046 24.0712 5.5978C25.6012 5.81605 26.9024 5.64708 27.8773 5.36729C29.0508 5.03052 29.7064 3.92582 30.3634 2.89684C31.721 0.770627 33.7389 0.699209 35.5993 1.38927C37.9417 2.25814 40.5391 2.69869 42.987 2.19909Z" stroke="white" stroke-width="2"/>
</svg>
