<svg width="45" height="36" viewBox="0 0 45 36" fill="" xmlns="http://www.w3.org/2000/svg">
<path d="M30.0219 1.10129C35.6275 0.301605 39.0309 4.43331 40.0319 6.59912C42.5344 11.0971 42.5344 16.0956 43.0349 20.5938C43.2783 22.7817 42.794 25.8193 42.1895 28.4264C41.6063 30.9413 39.2884 32.5968 36.7186 32.3492C36.0153 32.2814 35.2744 32.196 34.5264 32.0893C31.0229 31.5895 30.0219 33.5887 24.0159 34.5883C20.4684 35.1787 17.0664 33.8075 14.8575 32.4459C13.5969 31.6689 12.1838 31.1093 10.7075 30.9943C8.64803 30.8338 6.58586 30.4947 4.95502 30.1628C3.37162 29.8405 2.00973 28.7971 1.63971 27.2242C0.314644 21.5914 1.41707 11.462 3.996 7.59896C6.99899 3.10073 13.5055 2.60093 16.5085 4.10034C17.3533 4.52215 18.2641 4.70911 19.1408 4.75249C21.5391 4.87116 23.8525 2.67483 26.1393 1.94238C27.1259 1.62639 28.3973 1.33305 30.0219 1.10129Z" stroke="white" stroke-width="2"/>
</svg>
