<svg width="39" height="29" viewBox="0 0 39 29" fill="" xmlns="http://www.w3.org/2000/svg">
<path d="M28.3013 1.88897C32.1389 -0.270939 34.9907 1.92144 36.4372 4.0412C36.9319 4.76629 37.0991 5.65024 37.0991 6.52806V15.691C36.6631 19.8278 35.9104 22.3739 35.1806 23.862C34.4807 25.289 32.8275 25.186 31.2769 24.8368C29.3552 24.404 26.7207 24.1876 24.0862 24.1876C20.0822 24.1876 15.0772 27.1864 12.0742 27.1864C9.07123 27.1864 4.06625 25.1872 2.56475 21.6886C1.06326 18.19 1.06326 8.69374 2.56475 4.69532C4.06625 0.696897 7.06923 2.19631 8.57073 3.19591C9.42443 3.76426 10.8343 3.69305 11.9379 3.48467C12.7001 3.34076 13.3675 2.91989 14.0019 2.47362C17.0997 0.294465 19.6712 0.830966 20.5827 2.19631C21.2088 3.13413 23.7112 3.11476 25.6504 2.90247C26.6001 2.79849 27.4688 2.35758 28.3013 1.88897Z" stroke="white" stroke-width="2"/>
</svg>
