<svg width="37" height="44" viewBox="0 0 37 44" fill="" xmlns="http://www.w3.org/2000/svg">
<path d="M23.5877 3.6431C23.9004 5.82905 26.8793 7.95403 29.2817 9.25612C30.433 9.8801 31.9067 10.2789 32.3567 11.5086C33.0349 13.3619 33.4117 16.681 33.5602 18.9857C33.5881 19.4184 33.656 19.8464 33.7649 20.266C34.2921 22.2971 35.0991 25.8384 35.0991 27.6335C35.0991 30.1325 33.5976 34.6308 31.0951 34.6308C28.5926 34.6308 26.5907 37.6296 23.0872 40.6284C20.2844 43.0275 16.9144 41.9612 15.5797 41.1282C12.6397 38.7261 10.8742 37.3781 9.92601 36.6977C9.37398 36.3016 8.72253 36.1087 8.06775 35.9273C5.90353 35.3276 4.0066 33.773 2.85276 32.553C2.30278 31.9716 1.95841 31.2298 1.79049 30.4472C0.263168 23.3294 2.06625 20.4834 2.06625 17.6375C2.06625 15.9609 3.69589 12.071 5.24684 8.79985C6.30351 6.57118 8.74533 5.51673 11.1276 4.87794C13.2652 4.30476 14.7785 3.1186 16.0802 2.14369C18.0822 0.644283 23.0872 0.14448 23.5877 3.6431Z" stroke="white" stroke-width="2"/>
</svg>
