<svg width="39" height="44" viewBox="0 0 39 44" fill="" xmlns="http://www.w3.org/2000/svg">
<path d="M22.594 2.77138C24.2929 3.96394 26.805 4.73022 29.1498 5.1899C31.7595 5.70151 34.0245 7.5252 34.6493 10.1102L36.9312 19.5505C37.0427 20.0121 37.0991 20.4846 37.0991 20.9595V32.2406C37.0991 35.9286 32.5572 37.9158 29.7574 38.5943C29.3161 38.7012 28.8811 38.8298 28.465 39.0116L22.2318 41.7348C21.4742 42.0658 20.6564 42.2367 19.8297 42.2367H17.0552C14.9034 42.2367 12.9817 41.009 11.4589 39.4885C9.60968 37.642 7.20172 36.1753 4.06625 33.74C0.794361 31.1987 1.95104 26.2677 3.19069 23.511C3.42301 22.9944 3.62506 22.463 3.74191 21.9087L6.41124 9.24705C7.06307 6.15513 10.1331 4.11101 13.0778 2.96491C13.577 2.77063 14.0805 2.53552 14.5767 2.25237C16.1637 1.34678 17.7186 1.03941 18.9506 1.00363C20.3444 0.96316 21.4527 1.97028 22.594 2.77138Z" stroke="white" stroke-width="2"/>
</svg>
