<svg width="37" height="49" viewBox="0 0 37 49" fill="" xmlns="http://www.w3.org/2000/svg">
<path d="M23.9092 5.99803C24.091 6.13416 24.2873 6.26299 24.4944 6.38468C27.0689 7.89792 29.5245 10.2164 30.0889 13.1489C31.0904 18.3531 33.005 25.5438 34.4197 30.4884C36.0213 36.0862 34.4197 39.1516 33.4187 39.9846L27.3336 44.7591C26.7248 45.2368 26.2551 45.8764 25.6697 46.3826C24.0032 47.8236 21.0673 47.6879 19.0313 47.2676C18.2778 47.112 17.5961 46.7327 16.9986 46.2479L10.9298 41.3238C10.2484 40.7709 9.44688 40.3937 8.61978 40.1007C5.52591 39.0048 3.54136 37.0447 2.52583 35.5866C2.04544 34.8968 1.88729 34.0529 1.88729 33.2124V26.4899C1.88729 22.818 3.57565 15.4931 4.62665 11.4826C4.79843 10.8271 4.84788 10.1493 4.86107 9.47182C4.89421 7.76994 5.36969 6.74653 6.04151 6.17316C7.90213 4.5852 10.9362 4.90679 12.5626 3.0797C13.688 1.81546 15.3703 1 17.0629 1H19.4047C21.4067 1 21.9072 4.49862 23.9092 5.99803Z" stroke="white" stroke-width="2"/>
</svg>
