<svg width="33" height="46" viewBox="0 0 33 46" fill="" xmlns="http://www.w3.org/2000/svg">
<path d="M22.5907 7.37545C23.3914 8.17513 25.5936 8.37505 26.5946 8.37505C28.0961 8.37505 29.0971 17.8713 29.0971 19.3707C29.0971 20.49 30.2593 26.0486 30.957 29.2235C31.051 29.6516 31.0991 30.0877 31.0991 30.5261V38.3632C30.5986 44.3608 23.0912 44.3608 22.0902 43.861C21.0892 43.3612 19.5877 41.8618 11.5797 40.8622C5.83145 40.1447 2.87697 36.1544 1.84853 33.6572C1.63595 33.141 1.56973 32.5827 1.56973 32.0244V21.3699C1.56973 15.3723 4.57272 6.87561 6.07421 6.87561C7.07268 6.87561 9.06248 5.26408 10.3764 4.05033C10.8503 3.61255 11.1994 3.06088 11.5937 2.55015C13.1898 0.482289 15.74 0.930052 17.0852 1.37782C18.5867 1.87762 21.5897 6.37584 22.5907 7.37545Z" stroke="white" stroke-width="2"/>
</svg>
