<svg width="38" height="51" viewBox="0 0 38 51" fill="" xmlns="http://www.w3.org/2000/svg">
<path d="M27.5031 7.49741C28.7043 10.2963 32.0076 12.3288 33.5091 12.9952C34.6418 13.3724 35.5668 17.6307 35.9484 20.0708C35.9923 20.3517 36.0116 20.6324 36.0116 20.9167V38.485C36.0116 45.9821 30.0056 46.4819 27.5031 46.4819C25.0006 46.4819 22.4981 49.4807 19.9957 48.9809C18.9328 48.7686 17.8229 48.2652 16.8907 47.7399C15.6106 47.0186 14.1755 46.5628 12.7084 46.4829C7.59737 46.2044 4.50955 44.045 3.11024 42.3861C2.63927 41.8277 2.42542 41.1148 2.33896 40.3895C1.848 36.2711 1.24812 28.4556 1.97773 22.9912C2.49569 19.1118 3.46034 15.8598 4.30287 13.6408C4.93811 11.9678 6.5357 10.8932 8.27101 10.4558C9.35207 10.1833 10.331 9.49828 11.0215 8.62304C12.9881 6.13057 16.1668 2.66362 18.4942 1.99958C21.9976 0.999972 26.0016 3.99879 27.5031 7.49741Z" stroke="white" stroke-width="2"/>
</svg>
