<svg width="37" height="51" viewBox="0 0 37 51" fill="" xmlns="http://www.w3.org/2000/svg">
<path d="M9.59599 7.49741C8.3948 10.2963 5.09151 12.3288 3.59001 12.9952C2.4573 13.3724 1.53229 17.6307 1.1507 20.0708C1.10678 20.3517 1.08752 20.6324 1.08752 20.9167V38.485C1.08752 45.9821 7.0935 46.4819 9.59599 46.4819C12.0985 46.4819 14.601 49.4807 17.1035 48.9809C18.1663 48.7686 19.2762 48.2652 20.2084 47.7399C21.4885 47.0186 22.9236 46.5628 24.3908 46.4829C29.5018 46.2044 32.5896 44.045 33.9889 42.3861C34.4599 41.8277 34.6737 41.1148 34.7602 40.3895C35.2511 36.2711 35.851 28.4556 35.1214 22.9912C34.6034 19.1118 33.6388 15.8598 32.7963 13.6408C32.161 11.9678 30.5634 10.8932 28.8281 10.4558C27.747 10.1833 26.7682 9.49828 26.0776 8.62304C24.111 6.13057 20.9323 2.66362 18.605 1.99958C15.1015 0.999972 11.0975 3.99879 9.59599 7.49741Z" stroke="white" stroke-width="2"/>
</svg>
