<svg width="40" height="40" viewBox="0 0 40 40" fill="none" xmlns="http://www.w3.org/2000/svg">
<path fill-rule="evenodd" clip-rule="evenodd" d="M26.5145 3.33325C31.7545 3.33325 35.2745 6.92159 35.2745 12.2616V27.5883C35.2745 32.9749 31.8628 36.4783 26.5828 36.5116L13.7612 36.5166C8.52118 36.5166 4.99951 32.9283 4.99951 27.5883V12.2616C4.99951 6.87325 8.41118 3.37159 13.6912 3.33992L26.5128 3.33325H26.5145ZM26.5145 5.83325L13.6995 5.83992C9.81951 5.86325 7.49951 8.26325 7.49951 12.2616V27.5883C7.49951 31.6133 9.84118 34.0166 13.7595 34.0166L26.5745 34.0116C30.4545 33.9883 32.7745 31.5849 32.7745 27.5883V12.2616C32.7745 8.23659 30.4345 5.83325 26.5145 5.83325ZM26.193 25.7894C26.883 25.7894 27.443 26.3494 27.443 27.0394C27.443 27.7294 26.883 28.2894 26.193 28.2894H14.1597C13.4697 28.2894 12.9097 27.7294 12.9097 27.0394C12.9097 26.3494 13.4697 25.7894 14.1597 25.7894H26.193ZM26.193 18.8119C26.883 18.8119 27.443 19.3719 27.443 20.0619C27.443 20.7519 26.883 21.3119 26.193 21.3119H14.1597C13.4697 21.3119 12.9097 20.7519 12.9097 20.0619C12.9097 19.3719 13.4697 18.8119 14.1597 18.8119H26.193ZM18.7508 11.8506C19.4408 11.8506 20.0008 12.4106 20.0008 13.1006C20.0008 13.7906 19.4408 14.3506 18.7508 14.3506H14.1592C13.4692 14.3506 12.9092 13.7906 12.9092 13.1006C12.9092 12.4106 13.4692 11.8506 14.1592 11.8506H18.7508Z" fill="currentColor"/>
</svg>
