<svg width="39" height="39" viewBox="0 0 39 39" fill="none" xmlns="http://www.w3.org/2000/svg">
<path fill-rule="evenodd" clip-rule="evenodd" d="M26.2194 1.625C26.8921 1.625 27.4381 2.171 27.4381 2.84375L27.4389 4.22144C29.8115 4.38411 31.7821 5.19683 33.1768 6.59441C34.6994 8.12354 35.5006 10.3222 35.4925 12.9595V27.7844C35.4925 33.1989 32.0539 36.5627 26.5208 36.5627H12.7766C7.24343 36.5627 3.80493 33.1518 3.80493 27.6609V12.9563C3.80493 7.84923 6.8714 4.57103 11.8725 4.222L11.8735 2.84375C11.8735 2.171 12.4195 1.625 13.0923 1.625C13.765 1.625 14.311 2.171 14.311 2.84375L14.3106 4.19088H24.9998L25.0006 2.84375C25.0006 2.171 25.5466 1.625 26.2194 1.625ZM33.0549 16.094H6.24243V27.6609C6.24243 31.8307 8.56293 34.1252 12.7766 34.1252H26.5208C30.7344 34.1252 33.055 31.8729 33.055 27.7844L33.0549 16.094ZM26.8819 26.319C27.5546 26.319 28.1006 26.865 28.1006 27.5377C28.1006 28.2105 27.5546 28.7565 26.8819 28.7565C26.2091 28.7565 25.6566 28.2105 25.6566 27.5377C25.6566 26.865 26.1945 26.319 26.8673 26.319H26.8819ZM19.6709 26.319C20.3437 26.319 20.8897 26.865 20.8897 27.5377C20.8897 28.2105 20.3437 28.7565 19.6709 28.7565C18.9982 28.7565 18.4457 28.2105 18.4457 27.5377C18.4457 26.865 18.9836 26.319 19.6563 26.319H19.6709ZM12.4449 26.319C13.1176 26.319 13.6636 26.865 13.6636 27.5377C13.6636 28.2105 13.1176 28.7565 12.4449 28.7565C11.7721 28.7565 11.218 28.2105 11.218 27.5377C11.218 26.865 11.7575 26.319 12.4303 26.319H12.4449ZM26.8819 20.0031C27.5546 20.0031 28.1006 20.5491 28.1006 21.2218C28.1006 21.8946 27.5546 22.4406 26.8819 22.4406C26.2091 22.4406 25.6566 21.8946 25.6566 21.2218C25.6566 20.5491 26.1945 20.0031 26.8673 20.0031H26.8819ZM19.6709 20.0031C20.3437 20.0031 20.8897 20.5491 20.8897 21.2218C20.8897 21.8946 20.3437 22.4406 19.6709 22.4406C18.9982 22.4406 18.4457 21.8946 18.4457 21.2218C18.4457 20.5491 18.9836 20.0031 19.6563 20.0031H19.6709ZM12.4449 20.0031C13.1176 20.0031 13.6636 20.5491 13.6636 21.2218C13.6636 21.8946 13.1176 22.4406 12.4449 22.4406C11.7721 22.4406 11.218 21.8946 11.218 21.2218C11.218 20.5491 11.7575 20.0031 12.4303 20.0031H12.4449ZM24.9998 6.62838H14.3106L14.311 8.19162C14.311 8.86437 13.765 9.41037 13.0923 9.41037C12.4195 9.41037 11.8735 8.86437 11.8735 8.19162L11.8727 6.66527C8.23231 6.97108 6.24243 9.17777 6.24243 12.9563V13.6565H33.0549L33.055 12.9563C33.0614 10.9494 32.5219 9.38941 31.4511 8.31691C30.511 7.3741 29.1368 6.81103 27.4395 6.66605L27.4381 8.19162C27.4381 8.86437 26.8921 9.41037 26.2194 9.41037C25.5466 9.41037 25.0006 8.86437 25.0006 8.19162L24.9998 6.62838Z" fill="black"/>
</svg>
