<svg width="32" height="32" viewBox="0 0 32 32" fill="none" xmlns="http://www.w3.org/2000/svg">
<path d="M6.65676 17.3121C5.92039 17.3121 5.32343 17.909 5.32343 18.6454C5.32343 19.122 5.57341 19.5401 5.94939 19.7758L9.53288 23.3593C10.0536 23.8801 10.8978 23.8801 11.4185 23.3593C11.9392 22.8386 11.9392 21.9944 11.4185 21.4737L9.92353 19.9788H19.9902C20.7264 19.9788 21.3235 19.3818 21.3235 18.6454C21.3235 17.909 20.7264 17.3121 19.9902 17.3121H6.72269C6.71053 17.312 6.69837 17.312 6.68621 17.3121H6.65676Z" fill="white"/>
<path d="M25.3432 14.6878C26.0796 14.6878 26.6765 14.0909 26.6765 13.3545C26.6765 12.8779 26.4266 12.4598 26.0506 12.224L22.4672 8.64052C21.9464 8.11983 21.1022 8.11983 20.5814 8.64052C20.0608 9.16123 20.0608 10.0054 20.5814 10.5261L22.0765 12.0211H12.0099C11.2735 12.0211 10.6766 12.6181 10.6766 13.3545C10.6766 14.0909 11.2735 14.6878 12.0099 14.6878H25.2773C25.2894 14.6879 25.3016 14.6879 25.3138 14.6878H25.3432Z" fill="white"/>
</svg>
