<svg width="32" height="32" viewBox="0 0 32 32" fill="none" xmlns="http://www.w3.org/2000/svg">
<path fill-rule="evenodd" clip-rule="evenodd" d="M25.8461 11.6266C26.3968 11.6719 26.8075 12.1533 26.7635 12.7039C26.7555 12.7946 26.0328 21.7426 25.6168 25.4959C25.3581 27.8253 23.8195 29.2426 21.4968 29.2853C19.7195 29.3159 18.0048 29.3333 16.3288 29.3333C14.5221 29.3333 12.7608 29.3133 11.0181 29.2773C8.7888 29.2333 7.24613 27.7879 6.99413 25.5053C6.57413 21.7186 5.85547 12.7933 5.8488 12.7039C5.80347 12.1533 6.21413 11.6706 6.7648 11.6266C7.30747 11.6119 7.79813 11.9933 7.84213 12.5426C7.84639 12.6005 8.14019 16.2453 8.46035 19.8515L8.52465 20.5712C8.68591 22.3637 8.84937 24.0861 8.98213 25.2853C9.1248 26.5826 9.8248 27.2519 11.0595 27.2773C14.3928 27.3479 17.7941 27.3519 21.4608 27.2853C22.7728 27.2599 23.4821 26.6039 23.6288 25.2759C24.0421 21.5506 24.7621 12.6333 24.7701 12.5426C24.8141 11.9933 25.3008 11.6093 25.8461 11.6266ZM19.1272 2.66699C20.3512 2.66699 21.4272 3.49233 21.7432 4.67499L22.0819 6.35633C22.1913 6.90749 22.675 7.31 23.235 7.31884L27.6107 7.31899C28.1627 7.31899 28.6107 7.76699 28.6107 8.31899C28.6107 8.87099 28.1627 9.31899 27.6107 9.31899L23.2741 9.31879C23.2674 9.31893 23.2606 9.31899 23.2539 9.31899L23.2213 9.31766L9.38882 9.31883C9.37807 9.31894 9.36731 9.31899 9.35653 9.31899L9.336 9.31766L5 9.31899C4.448 9.31899 4 8.87099 4 8.31899C4 7.76699 4.448 7.31899 5 7.31899L9.37467 7.31766L9.50936 7.30913C10.0111 7.24404 10.428 6.86299 10.5299 6.35633L10.8539 4.73499C11.1832 3.49233 12.2592 2.66699 13.4832 2.66699H19.1272ZM19.1272 4.66699H13.4832C13.1632 4.66699 12.8819 4.88166 12.8005 5.18966L12.4899 6.74966C12.4504 6.94725 12.3929 7.13768 12.3193 7.31935H20.2915C20.2178 7.13768 20.1602 6.94725 20.1205 6.74966L19.7965 5.12833C19.7285 4.88166 19.4472 4.66699 19.1272 4.66699Z" fill="white"/>
</svg>
