<svg width="40" height="40" viewBox="0 0 40 40" fill="none" xmlns="http://www.w3.org/2000/svg">
<path fill-rule="evenodd" clip-rule="evenodd" d="M22.8616 25.4855C24.8683 25.4855 26.5016 27.1072 26.5016 29.1005V34.2272C26.5016 34.6555 26.8449 34.9988 27.2849 35.0088H30.4616C32.9649 35.0088 34.9999 32.9988 34.9999 30.5288V15.9888C34.9883 15.1388 34.5833 14.3388 33.8883 13.8072L22.8999 5.04383C21.4249 3.8755 19.3616 3.8755 17.8816 5.04717L6.96825 13.8038C6.24659 14.3522 5.84159 15.1522 5.83325 16.0172V30.5288C5.83325 32.9988 7.86825 35.0088 10.3716 35.0088H13.5783C14.0299 35.0088 14.3966 34.6505 14.3966 34.2105C14.3966 34.1138 14.4083 34.0172 14.4283 33.9255V29.1005C14.4283 27.1188 16.0516 25.4988 18.0433 25.4855H22.8616ZM30.4616 37.5088H27.2549C25.4183 37.4655 24.0016 36.0238 24.0016 34.2272V29.1005C24.0016 28.4855 23.4899 27.9855 22.8616 27.9855H18.0516C17.4366 27.9888 16.9283 28.4905 16.9283 29.1005V34.2105C16.9283 34.3355 16.9116 34.4555 16.8766 34.5688C16.6966 36.2188 15.2866 37.5088 13.5783 37.5088H10.3716C6.48992 37.5088 3.33325 34.3772 3.33325 30.5288V16.0055C3.34992 14.3488 4.11325 12.8322 5.43159 11.8338L16.3233 3.09217C18.7216 1.19217 22.0633 1.19216 24.4566 3.08883L35.4266 11.8388C36.7149 12.8205 37.4783 14.3338 37.4999 15.9705V30.5288C37.4999 34.3772 34.3433 37.5088 30.4616 37.5088Z" fill="#7E7E7E"/>
</svg>
