<svg width="29" height="29" viewBox="0 0 29 29" fill="none" xmlns="http://www.w3.org/2000/svg">
<path d="M21.75 9.66667V7.25C21.75 5.32718 20.9862 3.48311 19.6265 2.12348C18.2669 0.763837 16.4228 0 14.5 0C12.5772 0 10.7331 0.763837 9.37348 2.12348C8.01384 3.48311 7.25 5.32718 7.25 7.25V9.66667C6.28859 9.66667 5.36656 10.0486 4.68674 10.7284C4.00692 11.4082 3.625 12.3303 3.625 13.2917V21.75C3.62692 23.6722 4.39137 25.5152 5.7506 26.8744C7.10982 28.2336 8.95277 28.9981 10.875 29H18.125C20.0472 28.9981 21.8902 28.2336 23.2494 26.8744C24.6086 25.5152 25.3731 23.6722 25.375 21.75V13.2917C25.375 12.3303 24.9931 11.4082 24.3133 10.7284C23.6334 10.0486 22.7114 9.66667 21.75 9.66667ZM9.66667 7.25C9.66667 5.96812 10.1759 4.73874 11.0823 3.83232C11.9887 2.92589 13.2181 2.41667 14.5 2.41667C15.7819 2.41667 17.0113 2.92589 17.9177 3.83232C18.8241 4.73874 19.3333 5.96812 19.3333 7.25V9.66667H9.66667V7.25ZM22.9583 21.75C22.9583 23.0319 22.4491 24.2613 21.5427 25.1677C20.6363 26.0741 19.4069 26.5833 18.125 26.5833H10.875C9.59312 26.5833 8.36374 26.0741 7.45732 25.1677C6.55089 24.2613 6.04167 23.0319 6.04167 21.75V13.2917C6.04167 12.9712 6.16897 12.6639 6.39558 12.4372C6.62219 12.2106 6.92953 12.0833 7.25 12.0833H21.75C22.0705 12.0833 22.3778 12.2106 22.6044 12.4372C22.831 12.6639 22.9583 12.9712 22.9583 13.2917V21.75Z" fill="#B9B9B9"/>
<path d="M14.4998 16.9167C14.1794 16.9167 13.872 17.044 13.6454 17.2706C13.4188 17.4972 13.2915 17.8046 13.2915 18.125V20.5417C13.2915 20.8622 13.4188 21.1695 13.6454 21.3961C13.872 21.6227 14.1794 21.75 14.4998 21.75C14.8203 21.75 15.1277 21.6227 15.3543 21.3961C15.5809 21.1695 15.7082 20.8622 15.7082 20.5417V18.125C15.7082 17.8046 15.5809 17.4972 15.3543 17.2706C15.1277 17.044 14.8203 16.9167 14.4998 16.9167Z" fill="#B9B9B9"/>
</svg>
