<svg width="32" height="38" viewBox="0 0 32 38" fill="none" xmlns="http://www.w3.org/2000/svg">
<path fill-rule="evenodd" clip-rule="evenodd" d="M12.6372 33.3477C13.5221 34.3334 14.6582 34.8749 15.8369 34.8749H15.8386C17.0225 34.8749 18.1637 34.3334 19.0503 33.346C19.5252 32.8215 20.335 32.7788 20.8594 33.252C21.3856 33.7252 21.4283 34.5367 20.9551 35.0611C19.5748 36.5935 17.7588 37.4374 15.8386 37.4374H15.8352C13.9202 37.4357 12.1076 36.5918 10.7324 35.0594C10.2592 34.535 10.3019 33.7235 10.8281 33.252C11.3543 32.7771 12.164 32.8198 12.6372 33.3477ZM15.922 0.708252C23.5155 0.708252 28.6166 6.6225 28.6166 12.1455C28.6166 14.9865 29.3393 16.1909 30.1063 17.4687C30.8648 18.7295 31.7241 20.161 31.7241 22.867C31.1279 29.7807 23.9102 30.3444 15.922 30.3444C7.93384 30.3444 0.71442 29.7807 0.125023 22.9764C0.11992 20.161 0.979212 18.7295 1.73771 17.4687L2.00548 17.018C2.66478 15.8848 3.22738 14.6523 3.22738 12.1455C3.22738 6.6225 8.32846 0.708252 15.922 0.708252ZM15.922 3.27075C9.95138 3.27075 5.78988 7.94817 5.78988 12.1455C5.78988 15.6972 4.80417 17.3389 3.93292 18.7875C3.23421 19.9509 2.68242 20.87 2.68242 22.867C2.96771 26.089 5.09459 27.7819 15.922 27.7819C26.6896 27.7819 28.8831 26.0138 29.1667 22.756C29.1616 20.87 28.6098 19.9509 27.9111 18.7875C27.0398 17.3389 26.0541 15.6972 26.0541 12.1455C26.0541 7.94817 21.8926 3.27075 15.922 3.27075Z" fill="#C5C5C5"/>
</svg>
