<svg width="26" height="27" viewBox="0 0 26 27" fill="none" xmlns="http://www.w3.org/2000/svg">
<path d="M18.9095 7.04345C18.9095 10.2851 16.2639 12.913 13.0004 12.913C9.7369 12.913 7.09131 10.2851 7.09131 7.04345C7.09131 3.80178 9.7369 1.17389 13.0004 1.17389C16.2639 1.17389 18.9095 3.80178 18.9095 7.04345ZM9.17039 7.04345C9.17039 9.14456 10.8851 10.8478 13.0004 10.8478C15.1157 10.8478 16.8304 9.14456 16.8304 7.04345C16.8304 4.94235 15.1157 3.23906 13.0004 3.23906C10.8851 3.23906 9.17039 4.94235 9.17039 7.04345Z" fill="#B9B9B9"/>
<path d="M2.1985 24.8938C1.53401 24.6198 1.21341 23.8537 1.55616 23.222C2.56169 21.3685 4.01183 19.7812 5.78617 18.6055C7.9251 17.1882 10.4391 16.4328 13.0103 16.4348C15.5814 16.4367 18.0943 17.196 20.231 18.6165C22.0035 19.7949 23.4512 21.3845 24.4538 23.2395C24.7956 23.8718 24.4738 24.6374 23.8089 24.9103C23.1484 25.1815 22.3999 24.8626 22.0454 24.2429C21.2494 22.8512 20.1356 21.6569 18.7867 20.7601C17.0767 19.6233 15.0658 19.0157 13.0083 19.0141C10.9507 19.0125 8.93886 19.6171 7.22717 20.7512C5.87684 21.646 4.76116 22.8386 3.96297 24.2291C3.60752 24.8482 2.85854 25.166 2.1985 24.8938Z" fill="#B9B9B9"/>
</svg>
