<svg width="40" height="40" viewBox="0 0 40 40" fill="none" xmlns="http://www.w3.org/2000/svg">
<path fill-rule="evenodd" clip-rule="evenodd" d="M35.4544 24.5584C36.1427 24.6101 36.6577 25.2118 36.6061 25.9001L36.2894 30.0818C36.0277 33.5318 33.1161 36.2334 29.6578 36.2334H10.3244C6.86609 36.2334 3.95442 33.5318 3.69275 30.0818L3.37609 25.9001C3.32442 25.2118 3.84109 24.6101 4.52942 24.5584C5.22109 24.5334 5.81775 25.0218 5.87109 25.7118L6.18609 29.8918C6.34942 32.0451 8.16609 33.7334 10.3244 33.7334H29.6578C31.8161 33.7334 33.6344 32.0451 33.7961 29.8918L34.1127 25.7118C34.1661 25.0218 34.7778 24.5318 35.4544 24.5584ZM22.1414 3.33325C24.6463 3.33325 26.7215 5.21036 27.0341 7.63163L30.3166 7.63309C33.8099 7.63309 36.6499 10.4814 36.6499 13.9848V19.7164C36.6499 20.1614 36.4132 20.5714 36.0316 20.7948C31.9177 23.2039 26.7064 24.6091 21.2408 24.7965L21.2414 27.7943C21.2414 28.4843 20.6814 29.0443 19.9914 29.0443C19.3014 29.0443 18.7414 28.4843 18.7414 27.7943L18.7403 24.797C13.2802 24.6112 8.06851 23.2057 3.95159 20.7948C3.56825 20.5714 3.33325 20.1614 3.33325 19.7164V13.9681C3.33325 10.4748 6.18159 7.63309 9.68325 7.63309L12.9488 7.63163C13.2613 5.21036 15.3365 3.33325 17.8414 3.33325H22.1414ZM30.3166 10.1331H9.68325C7.55992 10.1331 5.83325 11.8531 5.83325 13.9681V18.9881C9.78944 21.1377 14.777 22.3158 19.9682 22.3181L19.9914 22.3159L20.0099 22.3166L20.8035 22.3083C25.7132 22.1914 30.3968 21.0265 34.1499 18.9881V13.9848C34.1499 11.8598 32.4316 10.1331 30.3166 10.1331ZM22.1414 5.83325H17.8414C16.7192 5.83325 15.7719 6.59704 15.492 7.63205H24.4908C24.211 6.59704 23.2637 5.83325 22.1414 5.83325Z" fill="#7E7E7E"/>
</svg>
