<svg width="40" height="40" viewBox="0 0 40 40" fill="none" xmlns="http://www.w3.org/2000/svg">
<path fill-rule="evenodd" clip-rule="evenodd" d="M8.71795 22.5641C17.0646 22.5641 17.4359 25.3949 17.4359 31.2821C17.4359 34.2318 17.4359 36.3303 16.1969 37.8667C14.7713 39.6369 12.1764 40 8.71795 40C5.25949 40 2.66462 39.6369 1.23897 37.8667C0 36.3303 0 34.2338 0 31.3333L1.53846 31.2821H0C0 25.3949 0.371283 22.5641 8.71795 22.5641ZM31.2821 22.5641C39.6287 22.5641 40 25.3949 40 31.2821C40 34.2318 40 36.3303 38.761 37.8667C37.3354 39.6369 34.7405 40 31.2821 40C27.8236 40 25.2287 39.6369 23.8031 37.8667C22.5641 36.3303 22.5641 34.2338 22.5641 31.3333L24.1026 31.2821H22.5641C22.5641 25.3949 22.9354 22.5641 31.2821 22.5641ZM9.14084 25.6419L8.71795 25.641C3.36621 25.641 3.09176 26.0251 3.07768 30.517L3.07854 32.267C3.08827 34.0536 3.15634 35.3442 3.63282 35.9385C4.17641 36.6113 5.79077 36.9231 8.71795 36.9231C11.6451 36.9231 13.2595 36.6092 13.8031 35.9364C14.359 35.2451 14.359 33.6041 14.359 31.3313C14.359 26.2027 14.359 25.6661 9.14084 25.6419ZM31.7049 25.6419L31.2821 25.641C25.9303 25.641 25.6559 26.0251 25.6418 30.517L25.6426 32.267C25.6524 34.0536 25.7204 35.3442 26.1969 35.9385C26.7405 36.6113 28.3549 36.9231 31.2821 36.9231C34.2092 36.9231 35.8236 36.6092 36.3672 35.9364C36.9231 35.2451 36.9231 33.6041 36.9231 31.3313C36.9231 26.2027 36.9231 25.6661 31.7049 25.6419ZM8.71795 0C17.0646 0 17.4359 2.83077 17.4359 8.71795C17.4359 11.6677 17.4359 13.7662 16.1969 15.3026C14.7713 17.0728 12.1764 17.4359 8.71795 17.4359C5.25949 17.4359 2.66462 17.0728 1.23897 15.3026C0 13.7662 0 11.6697 0 8.76923L1.53846 8.71795H0C0 2.83077 0.371283 0 8.71795 0ZM31.2821 0C39.6287 0 40 2.83077 40 8.71795C40 11.6677 40 13.7662 38.761 15.3026C37.3354 17.0728 34.7405 17.4359 31.2821 17.4359C27.8236 17.4359 25.2287 17.0728 23.8031 15.3026C22.5641 13.7662 22.5641 11.6697 22.5641 8.76923L24.1026 8.71795H22.5641C22.5641 2.83077 22.9354 0 31.2821 0ZM9.14084 3.07784L8.71795 3.07692C3.36621 3.07692 3.09176 3.46095 3.07768 7.95292L3.07854 9.70294C3.08827 11.4895 3.15634 12.7801 3.63282 13.3744C4.17641 14.0472 5.79077 14.359 8.71795 14.359C11.6451 14.359 13.2595 14.0451 13.8031 13.3723C14.359 12.681 14.359 11.04 14.359 8.76718C14.359 3.63855 14.359 3.10198 9.14084 3.07784ZM31.7049 3.07784L31.2821 3.07692C25.9303 3.07692 25.6559 3.46095 25.6418 7.95292L25.6426 9.70294C25.6524 11.4895 25.7204 12.7801 26.1969 13.3744C26.7405 14.0472 28.3549 14.359 31.2821 14.359C34.2092 14.359 35.8236 14.0451 36.3672 13.3723C36.9231 12.681 36.9231 11.04 36.9231 8.76718C36.9231 3.63855 36.9231 3.10198 31.7049 3.07784Z" fill="#7E7E7E"/>
</svg>
