<svg width="40" height="40" viewBox="0 0 40 40" fill="none" xmlns="http://www.w3.org/2000/svg">
<path fill-rule="evenodd" clip-rule="evenodd" d="M24.8283 4.73675C25.5183 4.73675 26.0783 5.29675 26.0783 5.98675C26.0783 6.67675 25.5183 7.23675 24.8283 7.23675H12.7149C8.53492 7.23675 5.83325 10.1101 5.83325 14.5601V28.0301C5.83325 32.5384 8.46992 35.3384 12.7149 35.3384H27.0549C31.2349 35.3384 33.9366 32.4701 33.9366 28.0301V16.2984C33.9366 15.6084 34.4966 15.0484 35.1866 15.0484C35.8766 15.0484 36.4366 15.6084 36.4366 16.2984V28.0301C36.4366 33.8968 32.6666 37.8384 27.0549 37.8384H12.7149C7.10325 37.8384 3.33325 33.8968 3.33325 28.0301V14.5601C3.33325 8.68509 7.10325 4.73675 12.7149 4.73675H24.8283ZM28.3539 16.1198C28.9006 16.5431 29.0006 17.3281 28.5773 17.8731L23.6939 24.1731C23.4906 24.4364 23.1906 24.6081 22.8606 24.6481C22.5273 24.6931 22.1973 24.5964 21.9339 24.3914L17.2373 20.7014L13.0189 26.1831C12.7723 26.5031 12.4023 26.6714 12.0273 26.6714C11.7606 26.6714 11.4923 26.5864 11.2656 26.4131C10.7189 25.9914 10.6156 25.2064 11.0373 24.6598L16.0256 18.1764C16.2289 17.9114 16.5306 17.7398 16.8606 17.6981C17.1973 17.6548 17.5273 17.7481 17.7889 17.9564L22.4889 21.6481L26.6006 16.3431C27.0239 15.7948 27.8073 15.6931 28.3539 16.1198ZM33.2789 3.33325C35.7356 3.33325 37.7323 5.32992 37.7323 7.78658C37.7323 10.2433 35.7356 12.2416 33.2789 12.2416C30.8239 12.2416 28.8256 10.2433 28.8256 7.78658C28.8256 5.32992 30.8239 3.33325 33.2789 3.33325ZM33.2789 5.83325C32.2023 5.83325 31.3256 6.70825 31.3256 7.78658C31.3256 8.86325 32.2023 9.74159 33.2789 9.74159C34.3556 9.74159 35.2323 8.86325 35.2323 7.78658C35.2323 6.70825 34.3556 5.83325 33.2789 5.83325Z" fill="currentColor"/>
</svg>
