<svg width="40" height="40" viewBox="0 0 40 40" fill="none" xmlns="http://www.w3.org/2000/svg">
<path d="M34.9999 15.9888V29.5288C34.9999 30.0811 35.4476 30.5288 35.9999 30.5288H36.4999C37.0522 30.5288 37.4999 30.0811 37.4999 29.5288V15.9705C37.4783 14.3338 36.7149 12.8205 35.4266 11.8388L24.4566 3.08883C22.0633 1.19216 18.7216 1.19217 16.3233 3.09217L5.43159 11.8338C4.11325 12.8322 3.34992 14.3488 3.33325 16.0055V29.5288C3.33325 30.0811 3.78097 30.5288 4.33325 30.5288H4.83325C5.38554 30.5288 5.83325 30.0811 5.83325 29.5288V16.0172C5.84159 15.1522 6.24659 14.3522 6.96825 13.8038L17.8816 5.04717C19.3616 3.8755 21.4249 3.8755 22.8999 5.04383L33.8883 13.8072C34.5833 14.3388 34.9883 15.1388 34.9999 15.9888Z" fill="#7E7E7E"/>
<path d="M10.8999 20H29.8999" stroke="#7E7E7E" stroke-width="2.5" stroke-linecap="round"/>
<path d="M10.8999 27H29.8999" stroke="#7E7E7E" stroke-width="2.5" stroke-linecap="round"/>
</svg>
